<mxfile host="app.diagrams.net" modified="2021-04-18T08:45:40.929Z" agent="5.0 (Macintosh; Intel Mac OS X 10_15_7) AppleWebKit/537.36 (KHTML, like Gecko) Chrome/88.0.4324.192 Safari/537.36" etag="GhzTTz2V3eXEjBHvpqVx" version="14.6.1" type="github">
  <diagram id="4sl1_foFDUdXR3agchwQ" name="Page-1">
    <mxGraphModel dx="865" dy="556" grid="1" gridSize="10" guides="1" tooltips="1" connect="1" arrows="1" fold="1" page="1" pageScale="1" pageWidth="1169" pageHeight="827" math="0" shadow="0">
      <root>
        <mxCell id="0" />
        <mxCell id="1" parent="0" />
        <mxCell id="UmiwN4struJqizfxHamz-14" value="MOSIP Cluster" style="ellipse;whiteSpace=wrap;html=1;" parent="1" vertex="1">
          <mxGeometry x="870" y="200" width="200" height="160" as="geometry" />
        </mxCell>
        <mxCell id="UmiwN4struJqizfxHamz-15" value="Cloud Internal Load Balancer" style="rounded=0;whiteSpace=wrap;html=1;" parent="1" vertex="1">
          <mxGeometry x="640" y="250" width="120" height="60" as="geometry" />
        </mxCell>
        <mxCell id="UmiwN4struJqizfxHamz-16" value="Wireguard Landing Server" style="rounded=0;whiteSpace=wrap;html=1;" parent="1" vertex="1">
          <mxGeometry x="440" y="250" width="120" height="60" as="geometry" />
        </mxCell>
        <mxCell id="UmiwN4struJqizfxHamz-17" value="" style="aspect=fixed;pointerEvents=1;shadow=0;dashed=0;html=1;strokeColor=none;labelPosition=center;verticalLabelPosition=bottom;verticalAlign=top;align=center;fillColor=#00188D;shape=mxgraph.azure.laptop" parent="1" vertex="1">
          <mxGeometry x="240" y="265" width="50" height="30" as="geometry" />
        </mxCell>
        <mxCell id="UmiwN4struJqizfxHamz-18" value="Wireguard Client" style="text;html=1;strokeColor=none;fillColor=none;align=center;verticalAlign=middle;whiteSpace=wrap;rounded=0;" parent="1" vertex="1">
          <mxGeometry x="240" y="220" width="40" height="20" as="geometry" />
        </mxCell>
        <mxCell id="UmiwN4struJqizfxHamz-19" value="https://api.xyz.net" style="text;html=1;align=center;verticalAlign=middle;resizable=0;points=[];autosize=1;strokeColor=none;" parent="1" vertex="1">
          <mxGeometry x="255" y="380" width="110" height="20" as="geometry" />
        </mxCell>
        <mxCell id="UmiwN4struJqizfxHamz-20" value="Internal load balancer IP address&lt;br&gt;" style="text;html=1;align=center;verticalAlign=middle;resizable=0;points=[];autosize=1;strokeColor=none;" parent="1" vertex="1">
          <mxGeometry x="420" y="380" width="190" height="20" as="geometry" />
        </mxCell>
        <mxCell id="UmiwN4struJqizfxHamz-21" value="" style="endArrow=classic;html=1;" parent="1" target="UmiwN4struJqizfxHamz-20" edge="1">
          <mxGeometry width="50" height="50" relative="1" as="geometry">
            <mxPoint x="360" y="390" as="sourcePoint" />
            <mxPoint x="410" y="340" as="targetPoint" />
          </mxGeometry>
        </mxCell>
        <mxCell id="UmiwN4struJqizfxHamz-23" value="" style="endArrow=classic;startArrow=classic;html=1;entryX=0;entryY=0.5;entryDx=0;entryDy=0;exitX=1.06;exitY=0.467;exitDx=0;exitDy=0;exitPerimeter=0;" parent="1" source="UmiwN4struJqizfxHamz-17" target="UmiwN4struJqizfxHamz-16" edge="1">
          <mxGeometry width="50" height="50" relative="1" as="geometry">
            <mxPoint x="290" y="310" as="sourcePoint" />
            <mxPoint x="340" y="260" as="targetPoint" />
          </mxGeometry>
        </mxCell>
        <mxCell id="UmiwN4struJqizfxHamz-25" value="" style="endArrow=classic;startArrow=classic;html=1;entryX=0;entryY=0.5;entryDx=0;entryDy=0;exitX=1;exitY=0.5;exitDx=0;exitDy=0;" parent="1" source="UmiwN4struJqizfxHamz-16" target="UmiwN4struJqizfxHamz-15" edge="1">
          <mxGeometry width="50" height="50" relative="1" as="geometry">
            <mxPoint x="560" y="300" as="sourcePoint" />
            <mxPoint x="610" y="250" as="targetPoint" />
          </mxGeometry>
        </mxCell>
        <mxCell id="UmiwN4struJqizfxHamz-27" value="" style="endArrow=classic;startArrow=classic;html=1;entryX=0;entryY=0.5;entryDx=0;entryDy=0;exitX=1;exitY=0.5;exitDx=0;exitDy=0;" parent="1" source="UmiwN4struJqizfxHamz-15" target="UmiwN4struJqizfxHamz-14" edge="1">
          <mxGeometry width="50" height="50" relative="1" as="geometry">
            <mxPoint x="760" y="300" as="sourcePoint" />
            <mxPoint x="810" y="250" as="targetPoint" />
          </mxGeometry>
        </mxCell>
      </root>
    </mxGraphModel>
  </diagram>
</mxfile>
